<svg enable-background="new 0 0 512 512" viewBox="0 0 512 512" xmlns="http://www.w3.org/2000/svg" xmlns:xlink="http://www.w3.org/1999/xlink"><radialGradient id="a" cx="255.1633" cy="-5.8129" gradientTransform="matrix(.9999 .0101 -.0101 .9999 2.2146 -7.4915)" gradientUnits="userSpaceOnUse" r="305.8731"><stop offset=".1811" stop-color="#0d4d8c"/><stop offset=".5649" stop-color="#0a1633"/></radialGradient><linearGradient id="b"><stop offset=".1811" stop-color="#0d4d8c"/><stop offset=".5649" stop-color="#0d4d8c"/></linearGradient><radialGradient id="c" cx="151.1096" cy="11.2143" gradientTransform="matrix(.9999 .0101 -.0101 .9999 2.2146 -7.4915)" gradientUnits="userSpaceOnUse" r="119.0346" xlink:href="#b"/><radialGradient id="d" cx="324.3907" cy="32.5986" gradientTransform="matrix(.9999 .0101 -.0101 .9999 2.2146 -7.4915)" gradientUnits="userSpaceOnUse" r="85.3372" xlink:href="#b"/><linearGradient id="e"><stop offset=".0837838" stop-color="#6bc8f6"/><stop offset=".4027" stop-color="#1795d2"/><stop offset=".6351" stop-color="#1795d2"/></linearGradient><radialGradient id="f" cx="209.1607" cy="318.7772" gradientTransform="matrix(.9999 .0101 -.0101 .9999 2.2146 -7.4915)" gradientUnits="userSpaceOnUse" r="216.1448" xlink:href="#e"/><radialGradient id="g" cx="205.6395" cy="297.5249" gradientTransform="matrix(.9999 .0101 -.0101 .9999 2.2146 -7.4915)" gradientUnits="userSpaceOnUse" r="62.5377"><stop offset=".1811" stop-color="#90ddfc"/><stop offset=".5649" stop-color="#6bc8f6"/></radialGradient><radialGradient id="h" cx="225.9343" cy="348.895" gradientTransform="matrix(.9999 .0101 -.0101 .9999 2.2146 -7.4915)" gradientUnits="userSpaceOnUse" r="159.989"><stop offset=".4027" stop-color="#1795d2"/><stop offset=".8405" stop-color="#0d4d8c"/></radialGradient><radialGradient id="i" cx="446.3146" cy="117.9944" gradientTransform="matrix(.9999 .0101 -.0101 .9999 2.2146 -7.4915)" gradientUnits="userSpaceOnUse" r="153.2989" xlink:href="#e"/><radialGradient id="j" cx="474.4983" cy="125.006" gradientTransform="matrix(.9999 .0101 -.0101 .9999 2.2146 -7.4915)" gradientUnits="userSpaceOnUse" r="100.3473"><stop offset=".2135" stop-color="#1691ce"/><stop offset=".2297" stop-color="#1795d2"/><stop offset=".2848" stop-color="#168dca"/><stop offset=".5409" stop-color="#116aa8"/><stop offset=".7515" stop-color="#0e5594"/><stop offset=".8892" stop-color="#0d4d8c"/></radialGradient><linearGradient id="k"><stop offset="0" stop-color="#8d8f8e"/><stop offset=".1863" stop-color="#6d6e70"/><stop offset=".375" stop-color="#414342"/><stop offset=".5858" stop-color="#2b2d2c"/><stop offset=".9632"/></linearGradient><radialGradient id="l" cx="189.7818" cy="320.4239" gradientTransform="matrix(.9999 .0101 -.0101 .9999 2.2146 -7.4915)" gradientUnits="userSpaceOnUse" r="28.5944" xlink:href="#k"/><radialGradient id="m" cx="196.6991" cy="390.3405" gradientTransform="matrix(.9999 .0101 -.0101 .9999 2.2146 -7.4915)" gradientUnits="userSpaceOnUse" r="52.0836" xlink:href="#k"/><linearGradient id="n"><stop offset="0" stop-color="#fff"/><stop offset="1" stop-color="#fff" stop-opacity="0"/></linearGradient><linearGradient id="o" gradientTransform="matrix(.9999 .0101 -.0101 .9999 2.2146 -7.4915)" gradientUnits="userSpaceOnUse" x1="188.5994" x2="203.7091" xlink:href="#n" y1="322.8722" y2="337.1307"/><clipPath id="p"><path d="m264.9 304.6c18-7.9 48.2-5.1 48.2-5.1 1-11.9-1.5-63.9-32.2-55.7-30.8 8.2-30.8 54.6-30.8 54.6s-.5 4.7 4.6 4.7"/></clipPath><linearGradient id="q"><stop offset=".3541" stop-color="#58595b"/><stop offset=".5703" stop-color="#111b12"/><stop offset=".7541" stop-color="#000d00"/><stop offset=".8622"/></linearGradient><radialGradient id="r" cx="280.7221" cy="304.7208" gradientTransform="matrix(.9999 .0101 -.0101 .9999 2.2146 -7.4915)" gradientUnits="userSpaceOnUse" r="42.8744" xlink:href="#q"/><clipPath id="s"><path d="m163.6 303.5c-17.8-8.3-48.1-6-48.1-6-.7-11.9 2.8-63.9 33.4-55 30.6 8.8 29.7 55.3 29.7 55.3s.4 4.7-4.7 4.6"/></clipPath><radialGradient id="t" cx="136.0586" cy="304.7203" gradientTransform="matrix(.9999 .0101 -.0101 .9999 12.7255 -7.3853)" gradientUnits="userSpaceOnUse" r="42.8744" xlink:href="#q"/><radialGradient id="u" cx="284.2259" cy="217.7515" gradientTransform="matrix(.9999 .0101 -.0101 .9999 2.2146 -7.4915)" gradientUnits="userSpaceOnUse" r="48.8635" xlink:href="#e"/><radialGradient id="v" cx="2124.2529" cy="217.6843" gradientTransform="matrix(-.9999 -.0101 -.0101 .9999 2274.3672 15.526)" gradientUnits="userSpaceOnUse" r="48.8646" xlink:href="#e"/><radialGradient id="w" cx="201.4911" cy="461.2608" gradientTransform="matrix(.9999 .0101 -.0101 .9999 2.2146 -7.4915)" gradientUnits="userSpaceOnUse" r="109.3138"><stop offset=".1108" stop-color="#c6509c"/><stop offset=".2892" stop-color="#993c7f"/><stop offset=".5324" stop-color="#53154b"/></radialGradient><linearGradient id="x" gradientTransform="matrix(.9999 .0101 -.0101 .9999 2.2146 -7.4915)" gradientUnits="userSpaceOnUse" x1="180.5332" x2="267.3035" y1="430.6861" y2="430.6861"><stop offset=".09459461" stop-color="#ffb1e9"/><stop offset=".4351" stop-color="#fe69c0"/></linearGradient><linearGradient id="y" gradientTransform="matrix(1.0074 -.257 .2317 .9651 -61.2141 310.4016)" gradientUnits="userSpaceOnUse" x1="218.3319" x2="231.5378" xlink:href="#n" y1="175.6991" y2="188.1609"/><linearGradient id="z" gradientTransform="matrix(1.0388 -.0429 .0269 .9921 -51.2905 54.1703)" gradientUnits="userSpaceOnUse" x1="250.5103" x2="256.9132" xlink:href="#n" y1="376.5456" y2="382.5879"/><linearGradient id="A"><stop offset=".0837838" stop-color="#fff"/><stop offset=".9108" stop-color="#b0b1b2"/></linearGradient><radialGradient id="B" cx="149.7356" cy="403.1478" gradientTransform="matrix(.9999 .0101 -.0101 .9999 2.2146 -7.4915)" gradientUnits="userSpaceOnUse" r="14.8779" xlink:href="#A"/><radialGradient id="C" cx="270.9327" cy="403.1499" gradientTransform="matrix(.9999 .0101 -.0101 .9999 2.2146 -7.4915)" gradientUnits="userSpaceOnUse" r="14.8787" xlink:href="#A"/><path d="m489.2 368.2s-66.5 86.2-180 106.4c0 0-60 30.9-103.3 16.8l-17-4.4c-15.3-1-24.6-12.2-24.6-12.2-90-23.9-152.7-145.5-152.7-145.5 27.3-7.4 53.1-29.3 53.1-29.3-16.2 2.4-28.9-1.1-28.9-1.1 40.2-22.6 67.2-81.2 67.2-81.2-.5-1.5-.9-3-1.4-4.5-39.1-130.3 26.5-196.3 26.5-196.3 17.2 39.6 83.1 85.5 85.1 86.9h.1c-13.3-30-5.5-51.2-5.5-51.2 20.1 33.4 100.7 65.8 100.7 65.8l134.5-82.9s.1-.1.1-.1c0 .1.1.1.1.1 58.3 102.3 20.3 186.7-3.2 223.5-8.2 12.8-14.6 19.9-14.6 19.9s27.6 42.9 60.6 61.1c0 0-9.4 8.4-23.1 10z" fill="url(#a)"/><path d="m213.2 103.8-17-4c-49.6-22.9-69-65.9-69-65.9-48.1 77.5-16.5 178.1-16.5 178.1l-9.1 1.2c-39.1-130.3 26.5-196.3 26.5-196.3 17.2 39.6 83 85.5 85.1 86.9z" fill="url(#c)"/><path d="m443.2 35.6-8.7 13-8.5 12.7c-43.8 34.7-131 69.6-131 69.6l3.9-5.7c-45.3-8.1-92.7-54.6-92.7-54.6l7.1 33.3c-13.3-30-5.5-51.2-5.5-51.2 20.1 33.4 100.7 65.8 100.7 65.8l134.5-83s.1-.1.1-.1c0 .1 0 .1.1.2z" fill="url(#d)"/><path d="m393.6 375.7-16.5-15.9s7 22.6-4.6 37.9l-3.3-14.1s-7.3 52.3-66.9 90.5c0 0-27.5 15.2-60.9 19.4-6.6.9-13.4 1.3-20.3 1-41.7-1.3-56.9-19.7-56.9-19.7s0 0-.1 0c-2.4-.7-80.8-25.5-92.6-105.3l-6.1 15.7s-9.5-25.2 6-42.1l-16.7 8.3s7.1-25.9 31.4-33.3c0 0 17.8-118.7 64.7-119.9 35-.9 55.8 45.3 55.8 45.3s28.7-61 87.4-46.8c58.6 14.2 78.7 136.3 78.7 136.3s24.6 18.9 20.9 42.7z" fill="url(#f)"/><path d="m167.5 318.4s7.8-22.2 32.1-27c24.3-4.9 37.8 22.6 38.7 29.4.9 6.7-36.2 25.2-47.7 21.9-11.5-3.4-23.1-24.3-23.1-24.3z" fill="url(#g)"/><path d="m393.6 375.7-16.5-15.9s7 22.6-4.6 37.9l-3.3-14.1s-7.3 52.3-66.9 90.5c0 0-27.5 15.2-60.9 19.4 125.6-42.9 106.6-164.2 106.6-164.2s-10.8-105.8-62.7-118.2c-51.8-12.5-80.6 52-80.6 52s-16.5-53-62.6-41.5c-46 11.4-43.6 106.8-43.6 106.8-32.9 97.2 63.2 145 65.8 146.3-2.4-.7-80.8-25.5-92.6-105.3l-6.1 15.7s-9.5-25.2 6-42.1l-16.7 8.3s7.1-25.9 31.4-33.3c0 0 17.8-118.7 64.7-119.9 35-.9 55.8 45.3 55.8 45.3s28.7-61 87.4-46.8c58.6 14.2 78.7 136.3 78.7 136.3s24.4 19 20.7 42.8z" fill="url(#h)"/><path d="m188.9 487c-10 .7-20.1-3.1-27.6-9.7 0 0 2 1.3 2 1.3-67.1-17.1-121-82.4-155.1-139.6-2.3-3.8-5.5-10.6-7.7-14.6 7.4-2 15.5-4 22.5-7.2 8.9-3.8 17.3-8.8 25.3-14.3 3.9-2.7 8-5.6 11.6-8.7 0 0 6 13.3 6 13.3-2.6.4-5.3.7-8 .8-7.7.4-15.4-.1-22.9-1.8 0 0-.5-.1-.5-.1s-.6-.2-.6-.2-17.9-4.6-17.9-4.6c7.4-4.4 19.9-10.9 26.5-16.1 6.7-5.1 12.8-11 18.4-17.2 14.2-16.1 26-34.4 35.4-53.7 0 0-.3 5.4-.3 5.4-5.4-17.1-9.5-34.8-11.9-52.7-7-51.6 1.6-107.9 33.9-150.1 3.1-4.1 9.1-10 12.6-13.8 0 0 4.6 10.4 4.6 10.4 3.7 8.3 9.3 16.4 15.5 23.9 15.9 19.1 35.2 35.7 54.9 50.9 4 3 8.1 6.1 12.1 8.9 0 0-11.2 9.3-11.2 9.3-3.8-8.7-6.6-17.9-7.8-27.3-1.1-9.1-.9-18.5 1.4-27.4 1.3-4.5 4.6-13.5 5.9-17.4 0 0 8.4 13.9 8.4 13.9 4.7 7.6 11.9 14.1 19.1 19.8 23.5 17.9 50.8 31.3 77.9 42.8 0 0-6.8.6-6.8.6l134.5-82.9-1.3 1s.1-.1.1-.1 7-6.9 7-6.9 4.9 8.5 4.9 8.5c47.4 81.2 41.7 176.9-17.3 250.6-.5.6-.9 1.1-1.5 1.8l.8-9.2c3.8 5.7 8.1 11.5 12.4 16.9 8.7 10.9 18.3 21.2 29 30.1 7.7 6.7 17.2 12 26.1 16.9-.4.3-8.8 7.6-9 7.7-5.6 4.4-12.1 7.7-19 9.6-2.4.7-4.9 1.1-7.4 1.5 0 0 3.5-13.7 3.5-13.7 2.7 1.9 30.1 20.8 32.8 22.7 0 0-4.9 6.3-4.9 6.3-5.8 7.2-12.1 13.9-18.6 20.4-19.4 19.1-40.9 36.2-64.5 50-31.3 18.5-65.9 31.7-101.8 37.6 0 0 1.8-.6 1.8-.6-8.3 4.1-16.9 7.3-25.7 10-25.7 7.5-55.2 11.9-80.5 1.2 8.8 1.8 17.6 2 26.3 1.2 25-2.5 48.7-11.7 71.2-22.4 1.2-.6 2.4-1.2 3.6-1.8 17.4-3.3 34.5-8.2 50.9-14.7 32.3-12.7 62.1-31.5 88.7-53.7 12.4-10.5 24.1-21.8 34.6-34.1.7-.8 1.4-1.7 1.9-2.4 0 0 1.7 10.8 1.7 10.8-10.2-7.1-32.2-22.2-42.1-29.1 0 0 19.3-2.8 19.3-2.8 6.9-.8 13.5-3.8 18.9-8.1 0 0 1.4 12.3 1.4 12.3-3.4-1.9-6.7-4-9.9-6.2-23-16.6-41.3-38.7-56.7-62.3 28.7-31.6 47-76.2 50.1-118.7 3.3-42-8.4-84-29.4-120.4 0 0 12.1 1.6 11.8 1.7 0 0-.6.6-.6.6s-.7.4-.7.4-134.5 82.9-134.5 82.9-3.3 2-3.3 2c-32.7-13.5-89.2-40.2-107.9-70.3 0 0 13.6-1.3 13.6-1.3-.5 1.7-.9 3.2-1.1 5-2.2 13.7.8 27.9 6.4 40.5 0 0 11.1 24.9 11.1 24.9-33.1-22.6-66.6-47.2-92.4-78.2-6.7-8.3-13.1-17.1-17.7-27.5 0 0 12.3 2.3 12.3 2.3-.4.5-1.4 1.5-1.8 2-43.2 54.2-41.4 130.8-20.5 194-13.7 28.9-34.2 59.5-59.7 79.2-3.8 2.9-7.8 5.5-12 7.9 0 0-1.7-13.9-1.7-13.9 6.3 1.5 12.8 1.9 19.3 1.6 3.9-.1 28-3.5 32.4-4.1-3.9 3.4-22.2 18.7-26.3 21.7-15.1 11.1-31.4 20.7-49.6 25.9 0 0 4.8-10.9 4.8-10.9 1.7 3.1 4.5 8.2 6.4 11.4 24.3 42.4 54.4 82.4 93.8 110.9 14.3 10.2 29.9 18.6 46.7 23.4l2 1.3c0 .1.2.4.3.6 0 0 .4.6.4.6 5.2 6.8 12.6 11.8 20.9 13.6z"/><path d="m213.6 112.6c-23.4-8.3-49.7-8.2-73.1-.3 0 0 1.3-8.8 1.3-8.8 9.2 7.1 18 14.4 26.5 22.3 8.6 8.2 17.4 16.6 23.4 27.2 0 0-.6 6.6-.6 6.6-2.6 3.5-4.4 7.5-5.6 11.7-4 13.9 1 28.6 9.4 40 0 0-6.7-.1-6.7-.1 7.9-9.3 18.6-16.5 30.5-19.4 4-.9 8.1-1.2 12-.6-2.8.9-5.5 1.9-8.1 3.2-9.2 4.4-17 11.1-24.1 18.4-.9.9-2.8 2.9-3.7 3.9 0 0-3.2 4.3-3.2 4.3-4.7-5.7-9.4-11.6-12.6-18.4-7.9-15.5-7.7-35.5 2.2-50.2 0 0 .3-.4.3-.4l-.6 6.6c-5.1-9.3-12.8-17.2-20.3-24.8-7.9-7.8-16.4-15.3-25-22.3 0 0-6.8-5.5-6.8-5.5s8.1-3.3 8.1-3.3c25.3-10.2 54.1-11.7 80.4-4.3.5.1.8.3 1.5.5-.1.1-5.2 13.7-5.2 13.7z"/><path d="m444.5 243.8c-.1-11.7-2.1-20.6-2.2-21l-3-12.8-4.3 12.4c-2.9 8.3-10.4 15.7-16 20.2.6-16.9-4.6-33.6-4.8-34.5l-3.1-9.9-4 9.6c-5.8 13.8-19.5 21.3-26.6 24.3-2.2-34 2.6-68.3 14.3-102.3 15.5-45.3 38.9-77 47.6-87.9 23.1 42.4 31.8 85.8 26 129.2-3.9 29.9-14 54.6-23.9 72.7z" fill="url(#i)"/><path d="m441.8 49c20.6 40 28.3 81 22.9 121.8-3.1 22.9-9.9 42.9-17.4 59-.6-4.7-1.3-7.6-1.3-7.9l-6-25.5-8.5 24.8c-1.6 4.6-5 9.2-8.8 13-.9-14.3-4.6-26.4-4.8-27.1l-6.2-19.9-8 19.2c-4.1 9.8-12.9 16.2-19.7 19.9-1.3-31.6 3.5-63.6 14.4-95.1 13.5-39.6 33.2-68.6 43.4-82.2m1.3-13.6s0 .1 0 0c-1.4 1.6-32.6 37.1-51.9 93.3-10.6 30.8-17.5 67.8-14.1 108.8 0 0 24.8-7.4 33.5-28.2 0 0 7 22.6 3.9 41.4 0 0 18.9-11.7 24.1-27 0 0 2.7 11.6 2 25.8-.2 3.2-.5 6.6-1.1 10l.4-.4c23.5-36.8 61.6-121.3 3.2-223.7z"/><path d="m313.8 123.8c-14 9.9-28.4 19.7-44.6 25.4 6.8-4.9 12.7-10.8 18.3-17 5.5-6.1 10.8-12.6 15.7-19.1 0 0 10.6 10.7 10.6 10.7z"/><path d="m98.2 217.1c9.3-9.4 19.6-18 31.4-24.2 4-2 8.2-3.7 12.7-4.6l-.1 4.8c-2-.7-9.6-3.5-11.4-4.2 7-9.2 19-12.7 30.1-12.7-5 .6-9.9 1.9-14.4 4.1-4.2 2.2-8.3 5-11.1 8.9 0 0-1-2.9-1-2.9 4.3 1 13 3 17.3 4 0 0-8.4 2.9-8.4 2.9-3.7 1.3-7.2 3.3-10.6 5.5-8.4 5.8-15.7 13.3-22.3 21.1-1.3 1.6-2.6 3.2-3.8 4.7z"/><path d="m314.3 177.7c6.3-4.3 14.5-5.5 21.9-3.9 0 0 5.3 1 5.3 1-5.3 5.3-11 10.6-16.7 15.5 0 0 .8-4.8.8-4.8 1.4 2.2 3 4.7 4.6 6.9 7.1 9.8 14.5 19.6 25.1 26-16.5-1.8-30-18.2-37.8-31.8 5.1-4.3 10.4-8.4 15.8-12.2 0 0 1.1 5.2 1.1 5.2-6.3-2.5-13.3-3-20.1-1.9z"/><path d="m419.1 242.7c.6-16.9-4.6-33.6-4.8-34.4l-3.1-9.9-4 9.6c-5.8 13.7-19.5 21.2-26.6 24.3-2.1-33.7 2.6-67.8 14-101.5 8-8.4 21.3-19.2 41.5-26.9-6.2 13-17.2 38.1-17.3 54.5l-.1 7.7 6.1-4.6s6.4-4.5 19.4-4.5c1.5 0 3.1.1 4.7.2-7.7 9-22.2 27.3-25.3 42.1l-1.7 8 25.3-13.7c.5 7.8.6 22.7-3.3 37.7-.6-4.9-1.3-8.1-1.4-8.3l-3-12.8-4.3 12.4c-3 8.2-10.5 15.5-16.1 20.1z" fill="url(#j)"/><path d="m428.5 111.1c-6.2 14-13.5 33.4-13.6 47.2l-.4 16.3 12.4-10.1c.6-.4 5.1-3.1 13.8-3.7-1.2 1.4-2.3 3-3.6 4.6-9.7 12.9-15.6 24-17.5 33l-1.9 8.8v-.1l-6.2-19.9-8 19.2c-4.1 9.8-12.9 16.2-19.7 19.9-1.3-31.1 3.4-62.5 13.8-93.6 6.7-6.6 16.7-14.8 30.9-21.6m15 88.6c0 3.1 0 6.6-.3 10.5l-2.1-9.1zm-5.7 3-6.4 18.5c-1.6 4.6-5 9.2-8.8 13-.5-8.6-2.1-16.5-3.3-21.5l11.4-6.2zm5.7-105.5c-25.7 7.9-42.3 20.8-52.3 31.5-10.6 30.8-17.5 67.8-14.1 108.8 0 0 24.8-7.4 33.5-28.2 0 0 7 22.6 3.9 41.4 0 0 18.9-11.7 24.1-27 0 0 2.7 11.6 2 25.8 14.6-27.1 9.6-62.1 9.6-62.1l-23.1 12.5c4-19.1 29.2-45.7 29.2-45.7-4.6-.8-8.7-1.1-12.3-1.1-14.6 0-21.6 5.3-21.6 5.3.3-21.8 21.1-61.2 21.1-61.2z"/><path d="m197.5 359.9c-.3 0-.6-.1-.8-.2-.8-.4-19.6-9.4-28.1-30.5-1.4-3.3-2.3-6.9-2.9-10.6-.1-.5.1-1.1.4-1.5.2-.2 2-2.3 7.2-4.4 6.7-2.6 15.9-3.9 27.2-4h.1c21.5 0 32.1 6.2 35.6 8.8 1.1.8 1.6 1.3 1.7 1.4.5.5.6 1.3.4 1.9-.4 1-9.1 24.8-40 38.7-.3.3-.6.4-.8.4z" fill="url(#l)"/><path d="m200.6 310.7c20.9 0 31.1 5.9 34.5 8.4 1 .7 1.4 1.2 1.4 1.2s-8.5 23.9-39 37.6c0 0-18.8-8.9-27.2-29.5-1.3-3.1-2.2-6.5-2.8-10.1 0 .1 6.2-7.5 33.1-7.6-.1 0 0 0 0 0m0-3.7h-.1c-11.6 0-21 1.4-27.9 4.1-5.5 2.2-7.6 4.5-8 5-.7.8-1 1.9-.8 2.9.6 3.8 1.6 7.5 3 11 8.8 21.7 28.2 31.1 29.1 31.5.5.2 1.1.4 1.6.4s1.1-.1 1.6-.3c31.6-14.2 40.7-38.8 41-39.8.5-1.3.2-2.8-.8-3.8-.2-.2-.8-.8-2-1.7-11-8.5-29.3-9.3-36.7-9.3z"/><path d="m236.5 320.3s-6.9 25-39 37.6c0 0-18.8-8.9-27.2-29.5 6.3 1.9 15.6 3.4 29 3.3 22.9-.2 32.2-7.8 35.8-12.6 1 .8 1.4 1.2 1.4 1.2z" fill="url(#m)"/><path d="m201.1 316.4c.4 2.5-4.9 5.3-11.9 6.3s-13-.2-13.3-2.7 4.9-5.3 11.9-6.3 12.9.2 13.3 2.7z" fill="url(#o)"/><path d="m264.9 304.6c18.8-5.8 48.2-5.1 48.2-5.1 1-11.9-1.5-63.9-32.2-55.7-30.8 8.2-30.8 54.6-30.8 54.6s-.5 4.7 4.6 4.7c0 .1 1.5 4.1 10.2 1.5z" fill="#fff"/><g clip-path="url(#p)"><path d="m318.4 284.9c-1.3 3.5-3.1 6.6-5.2 9.2-7.7 9.9-19.8 13.5-30.2 8-12.7-6.8-18.3-24.8-13-40.9.2-.6.4-1.2.6-1.7 6.3-16.5 22.2-24.2 35.3-17.2 13.3 7 18.9 26.1 12.5 42.6z" fill="url(#r)"/><path d="m318.4 284.9c-6.3 16.5-22.2 24.2-35.3 17.2-13.2-7-18.7-26.1-12.4-42.7 6.3-16.5 22.2-24.2 35.3-17.2 13.2 7.1 18.8 26.2 12.4 42.7z" fill="none" stroke="#000" stroke-miterlimit="10" stroke-width="4.726"/><g fill="#fff"><path d="m312.8 282.5c-1 4.3-4.6 7-8.1 6s-5.5-5.3-4.5-9.6 4.6-7 8.1-6 5.5 5.3 4.5 9.6z"/><path d="m277.8 282.8c-1.1 4.8-5.1 7.8-9 6.7s-6.1-6-5-10.8 5.1-7.8 9-6.7c3.8 1.2 6.1 6 5 10.8z"/><path d="m285 276.6c-.7 3.2-3.4 5.2-6 4.4s-4.1-4-3.4-7.2 3.4-5.2 6-4.4 4.1 4 3.4 7.2z"/></g></g><path d="m264.9 304.6c7-4.6 15.3-7.1 23.5-8.9 8.4-.7 16.6-.5 25.1.1 0 0-4.1 3.5-4.1 3.5.6-14.5-1.6-36.6-11.4-47.7-5.5-6.1-13.3-5.7-20.3-2.6-12.7 5.6-19 19.7-21.7 32.7-2 5.4-3.5 11-4.6 16.8-.6 2.5.8 4.3 3.4 4.7-2.1.4-4.5-.5-5.3-2.6-.3-.7-.5-1.4-.6-2.3v.1c-.8-6.1-.8-12.2-.3-18.4 2.8-12.2 7.7-24.5 17.7-32.8 4.5-3.6 9.8-6.3 15.5-7.4 12.2-2.8 22.1 4 27.3 14.7 4.2 8.4 6.2 17.7 7.2 26.9.7 6.2 1 12.1.6 18.4-.1 2.1-2 3.7-4.1 3.5-3.8-.3-7.9-.5-11.9-.5-4-.1-7.9.3-11.9.4-8.1-.4-16.2-.4-24.1 1.4z"/><path d="m163.6 303.5c-18.6-6.2-48.1-6-48.1-6-.7-11.9 2.8-63.9 33.4-55 30.6 8.8 29.7 55.3 29.7 55.3s.4 4.7-4.7 4.6c0-0-1.6 4-10.3 1.1z" fill="#fff"/><g clip-path="url(#s)"><path d="m184.3 283.6c-1.3 3.5-3.1 6.6-5.2 9.2-7.7 9.9-19.8 13.5-30.2 8-12.7-6.8-18.3-24.8-13-40.9.2-.6.4-1.2.6-1.7 6.3-16.5 22.2-24.2 35.3-17.2 13.3 7 18.8 26.1 12.5 42.6z" fill="url(#t)"/><path d="m184.3 283.6c-6.3 16.5-22.2 24.2-35.3 17.2-13.2-7-18.7-26.1-12.4-42.7 6.3-16.5 22.2-24.2 35.3-17.2 13.2 7.1 18.7 26.2 12.4 42.7z" fill="none" stroke="#000" stroke-miterlimit="10" stroke-width="4.726"/><g fill="#fff"><path d="m178.6 281.2c-1 4.3-4.6 7-8.1 6s-5.5-5.3-4.5-9.6 4.6-7 8.1-6c3.5.9 5.5 5.3 4.5 9.6z"/><path d="m143.6 281.4c-1.1 4.8-5.1 7.8-9 6.7s-6.1-6-5-10.8 5.1-7.8 9-6.7c3.9 1.2 6.1 6 5 10.8z"/><path d="m150.9 275.3c-.7 3.2-3.4 5.2-6 4.4s-4.1-4-3.4-7.2 3.4-5.2 6-4.4 4.1 4 3.4 7.2z"/></g></g><path d="m163.6 303.5c-7.9-1.9-16-2.1-24-1.8-4-.2-7.9-.7-11.9-.7-4-.1-8 0-11.9.2-2.1.2-4-1.4-4.1-3.5-.3-6.3.2-12.2 1-18.4 1.3-9.1 3.4-18.4 7.8-26.7 5.5-10.6 15.4-17.2 27.6-14.2 5.6 1.2 11 4 15.4 7.8 9.8 8.5 14.5 21 17.1 33.2.4 6.2.2 12.3-.7 18.4v-.1c-.1.9-.3 1.6-.6 2.3-.9 2.1-3.3 3-5.4 2.5 2.5-.4 4-2.1 3.4-4.7-1-5.7-2.4-11.5-4.3-16.9-2.5-13-8.4-27.3-21-33.2-6.9-3.2-14.7-3.8-20.3 2.2-10.1 10.9-12.7 32.9-12.4 47.4 0 0-4.1-3.5-4.1-3.5 8.4-.4 16.7-.5 25.1.4 8.2 1.9 16.4 4.6 23.3 9.3z"/><path d="m268.9 233.8c-3.6 0-6-1.2-7.2-3.7-3.3-6.9 3.9-13.5 8.6-16.3 3.5-2.1 7.6-3.5 11.7-4 1.2-.1 2.4-.2 3.5-.2 8 0 14.1 3.5 17.4 9.8 1.1 2.2 1.7 5.6.2 8-.6 1-1.8 2.2-4.1 2.2-.3 0-.6 0-.9-.1-.5-.1-1-.1-1.6-.1-1.1 0-2.1.1-3.1.2-3.5.4-6.9 1.1-10.3 1.9-2.2.5-4.5 1-6.8 1.4-.4.1-.8.1-1.3.2-1.6.3-3.9.7-6.1.7z" fill="url(#u)"/><path d="m285.6 210.8c6.6 0 12.9 2.6 16.2 9.1 1.6 3.1 1.6 8.2-2.7 8.2-.2 0-.5 0-.7 0-.6-.1-1.2-.1-1.7-.1-1.1 0-2.1.1-3.2.2-5.8.7-11.5 2.3-17.2 3.3-1.9.3-4.7 1-7.3 1s-4.9-.7-6-2.9c-2.8-5.9 3.5-11.9 8.1-14.6 3.3-2 7.2-3.3 11.2-3.8 1.1-.3 2.2-.4 3.3-.4m0-2.6c-1.2 0-2.4.1-3.7.2-4.3.5-8.6 2-12.2 4.2-6.8 4.1-12.3 11.2-9.1 18 1 2 3.2 4.4 8.4 4.4 2.3 0 4.6-.4 6.5-.8.4-.1.9-.2 1.2-.2 2.3-.4 4.6-.9 6.9-1.4 3.3-.7 6.8-1.5 10.2-1.9.9-.1 1.9-.2 2.9-.2.5 0 1 0 1.4.1.4 0 .7.1 1 .1 2.3 0 4.1-1 5.2-2.8 1.7-2.8 1.1-6.6-.2-9.2-3.4-6.6-10.1-10.5-18.5-10.5z"/><path d="m163.3 232.7c-2.3 0-4.6-.5-6.5-.9-.4-.1-.9-.2-1.3-.3-2.3-.4-4.6-1-6.8-1.5-3.4-.8-6.8-1.6-10.3-2.1-1-.1-2.2-.3-3.4-.3-.4 0-.9 0-1.3.1-.3 0-.5 0-.7 0-1.8 0-3.3-.8-4.2-2.2-1.4-2.4-.8-5.8.4-8 3.3-6.1 9.3-9.4 17-9.4 1.3 0 2.7.1 4 .3 4.1.6 8.2 2.1 11.7 4.3 4.7 2.9 11.7 9.7 8.3 16.5-1.1 2.3-3.5 3.5-6.9 3.5z" fill="url(#v)"/><path d="m146.3 209.4c1.3 0 2.6.1 3.8.3 4 .6 7.9 2 11.1 4.1 4.5 2.8 10.7 8.9 7.8 14.8-1.1 2.2-3.3 2.8-5.8 2.8-2.7 0-5.6-.8-7.5-1.1-5.7-1.1-11.4-2.8-17.2-3.6-1.2-.2-2.4-.3-3.5-.3-.5 0-.9 0-1.4.1-.2 0-.4 0-.6 0-4.4 0-4.3-5.2-2.6-8.3 3.3-6.2 9.5-8.8 15.9-8.8m0-2.6c-8.2 0-14.7 3.6-18.2 10.1-1.3 2.5-2 6.5-.3 9.3 1.1 1.8 3 2.8 5.3 2.8h.9c.4 0 .7-.1 1.1-.1 1.1 0 2.2.1 3.2.3 3.4.5 6.8 1.3 10.2 2.1 2.2.5 4.5 1.1 6.9 1.5.4.1.8.2 1.2.3 2 .4 4.4.9 6.8.9 4.9 0 7.1-2.3 8.1-4.3 3.3-6.7-2-13.9-8.8-18.2-3.6-2.2-7.9-3.8-12.2-4.4-1.4-.2-2.8-.3-4.2-.3z"/><path d="m302.4 474.1s-39.4 21.8-81.1 20.5-56.9-19.8-56.9-19.8-80.7-24.2-92.6-105.3l-6.1 15.7s-9.5-25.2 6-42.1l-16.7 8.4s7.1-25.9 31.4-33.3c0 0 17.8-118.7 64.7-119.9 35-.9 55.8 45.3 55.8 45.3s28.7-61 87.4-46.8c58.6 14.2 78.7 136.3 78.7 136.3s24.5 19 20.9 42.8l-16.5-15.9s7 22.6-4.6 37.9l-3.3-14.1c-.2-.2-7.6 52.1-67.1 90.3z" fill="none" stroke="#000" stroke-miterlimit="10" stroke-width="3.7831"/><path d="m169.6 454.8c19 18.2 49.4 19 73 10.4 8.1-3.3 15.6-8 21.2-14.9-1.4 4.4-4.2 8.4-7.4 11.7-21.5 22.5-71.4 22.3-86.8-7.2z"/><path d="m298.7 376.1s-8.7 21.4-27.7 39.5c-1.8 1.7-3.7 3.4-5.7 5.1-12.7 10.4-29.1 18.8-49.8 19.8-12.6.6-23.5-1.7-32.8-5.9-1.5-.6-2.9-1.3-4.3-2.1-30.7-16-42.9-50.4-42.9-50.4s7.6 5.4 20.2 7 37.8-6.9 37.8-6.9c41.4 25.2 105.2-6.1 105.2-6.1z" fill="url(#w)"/><path d="m270.9 415.6c-1.8 1.7-3.7 3.4-5.7 5.1-12.7 10.4-29.1 18.8-49.8 19.8-12.6.6-23.5-1.7-32.8-5.9 1.3-14.3 8.1-38.1 38.1-41.8 29.9-3.7 44.2 12.3 50.2 22.8z" fill="#2b0929"/><path d="m298.7 376.1s-10.4 25.7-33.5 44.6c-12.7 10.4-29.1 18.8-49.8 19.8-14.6.7-26.9-2.6-37.1-7.9-30.7-16-42.9-50.4-42.9-50.4s7.6 5.4 20.2 7 37.8-6.9 37.8-6.9c41.5 25.1 105.3-6.2 105.3-6.2z" fill="none" stroke="#000" stroke-miterlimit="10" stroke-width="7.5661"/><path d="m265.2 420.6c-12.7 10.4-29.1 18.8-49.8 19.8-14.6.7-26.9-2.6-37.1-7.9 7.1-8.2 21.3-19.6 46.3-21.8 20-1.8 32.8 3.9 40.6 9.9z" fill="url(#x)" stroke="#000" stroke-miterlimit="10" stroke-width="5.6746"/><path d="m211.2 420c.9 2-3.2 5.6-9.1 8.1s-11.4 2.8-12.3.8 3.2-5.6 9.1-8.1 11.4-2.8 12.3-.8z" fill="url(#y)"/><path d="m225 416.3c.2 1-2.1 2.3-5.2 2.9s-5.7.2-5.9-.8 2.1-2.3 5.2-2.9 5.7-.2 5.9.8z" fill="url(#z)"/><path d="m191 383.4c-.3-5.3 1.1-10.6 3.3-15.3.7-1.5 1.5-2.9 2.3-4.3-.2 1.6-.4 3.2-.5 4.8-.1 4.4.4 9 2.2 13 0-.1-7.3 1.8-7.3 1.8z"/><path d="m161.4 389.4s-2.2 6.6-5.2 12.9c-3.1 6.4-6.9 12.5-10 10.8-3.2-1.7-6.1-10.1-8.3-17.9-2.1-7.5-3.4-14.3-3.4-14.3 11.7 10 26.9 8.5 26.9 8.5z" fill="url(#B)" stroke="#000" stroke-miterlimit="10" stroke-width="3.7831"/><path d="m161.4 389.4s-2.2 6.6-5.2 12.9c-1-3.4-3.4-8.2-8.9-9-6-.8-8.4.8-9.3 1.9-2.1-7.5-3.4-14.3-3.4-14.3 11.6 10 26.8 8.5 26.8 8.5z" opacity=".56"/><path d="m282.6 382.3s-1.6 7.8-4 15.7c-2.3 7.4-5.2 14.8-8.2 16.4-3.4 1.7-7.5-5.7-10.5-12.7-2.4-5.7-4.2-11.3-4.2-11.3s10.9-1.5 26.9-8.1z" fill="url(#C)" stroke="#000" stroke-miterlimit="10" stroke-width="3.7831"/><path d="m282.6 382.3s-1.6 7.8-4 15.7c0-3.8-1.1-6.9-4.8-7.1-8.8-.3-13.6 9.9-13.9 10.7-2.4-5.7-4.2-11.3-4.2-11.3s10.9-1.4 26.9-8z" opacity=".56"/><path d="m117.3 365.3s16.9 18.5 32.1 22.9c15.3 4.4 43.9-5.9 43.9-5.9s14.8 12.1 49.3 9.4c34.5-2.6 65.8-21.5 65.8-21.5" fill="none" stroke="#000" stroke-miterlimit="10" stroke-width="9.4576"/><path d="m300.1 365.3c2.1-.6 4.4-.2 6.4.9 2 1 3.7 2.9 4.7 5 .9 2.2 1.1 4.5.8 6.6-.2 1.1-.5 2.1-.8 3.1-.5 1-.9 1.9-1.6 2.7l-.2-.1.5-2.9c.1-1 .2-1.9.2-2.9-.1-1.9-.4-3.8-1.2-5.6-1.5-3.5-5-6-8.8-6.7z"/><path d="m128.8 362.3c-1.9-1.1-4.2-1.4-6.4-.9-2.2.4-4.4 1.8-5.9 3.5-1.5 1.8-2.3 4-2.6 6.1-.1 1.1-.1 2.1-.1 3.2.2 1.1.4 2.1.8 3.1h.3l.3-2.9c.2-.9.4-1.9.6-2.8.6-1.8 1.4-3.6 2.7-5.1 2.4-3 6.5-4.4 10.3-4z"/></svg>